<svg width="914" height="732" viewBox="0 0 914 732" fill="none" xmlns="http://www.w3.org/2000/svg">
<path d="M248.5 723.32L240.5 731.32H1V0.32019H913C912.5 0.986857 910.4 3.42019 906 7.82019C901.6 12.2202 892.167 26.3202 888 32.8202C884.587 38.0202 874.911 67.6535 870.5 81.8202L862 79.3202L858.5 81.8202L856 84.8202V81.8202L853.5 82.8202V86.3202L850.5 89.3202L850 85.8202L847 87.3202L848 91.8202L845 95.8202L844.5 90.8202L842 92.8202L842.5 97.8202L841 99.3202L840.5 94.8202H838.5V102.32L837.5 103.32L836.5 98.8202L834.5 99.3202L835.5 105.32L831.5 109.32L830.5 104.82L829.5 105.32V111.82L828 114.32L827 109.32L824.5 110.82L826.5 117.32L823.5 122.32L822.5 114.32H820V118.82L818.5 118.32L816.5 118.82L817.5 129.32L812 135.32L811 124.82L807.5 126.32L808.5 138.82L799 148.32L800 145.32L799 142.32H797V137.32H796L793.5 138.82L795 152.82L791 156.82L790.5 151.82V148.32L790 145.32L788.5 144.32L784.5 145.32L786 162.32L760.5 188.32L759.5 179.82V174.82H758L757.5 170.82H753.5L750.5 172.32L753 195.82L708 242.32L706 232.82L702.5 217.82H696L690.5 220.82L697 254.32L659 291.32L655.5 278.32L656.5 277.32L657.5 275.82V271.82L655.5 268.32H654L653 260.82H644L638.5 265.82L643.5 307.32L598.5 354.82L412 551.82L303 665.82L282.5 580.82H258L220 610.82L248.5 723.32Z" fill="url(#paint0_radial_11_20)" stroke="#3D3D3D" stroke-width="0.1"/>
<defs>
<radialGradient id="paint0_radial_11_20" cx="0" cy="0" r="1" gradientUnits="userSpaceOnUse" gradientTransform="translate(457 323.82) rotate(-59.1986) scale(635.662 793.056)">
<stop stop-color="#3D3D3D" stop-opacity="0"/>
<stop offset="0.760417" stop-color="#3D3D3D"/>
</radialGradient>
</defs>
</svg>
