<svg width="914" height="739" viewBox="0 0 914 739" fill="none" xmlns="http://www.w3.org/2000/svg">
<path d="M665.5 730.564L673.5 738.641H913L913 0.640625L1 0.640625C1.5 1.31368 3.59998 3.77031 8 8.21244C12.4 12.6546 21.8333 26.8896 26 33.4518C29.4128 38.7016 39.0887 68.6187 43.5 82.9211L52 80.3971L55.5 82.9211L58 85.9498V82.9211L60.5 83.9306V87.4642L63.5 90.4929L64 86.9594L67 88.4737L66 93.0168L69 97.0551L69.5 92.0072L72 94.0264L71.5 99.0743L73 100.589L73.5 96.0456H75.5V103.617L76.5 104.627L77.5 100.084L79.5 100.589L78.5 106.646L82.5 110.684L83.5 106.141L84.5 106.646V113.208L86 115.732L87 110.684L89.5 112.199L87.5 118.761L90.5 123.809L91.5 115.732H94V120.275L95.5 119.771L97.5 120.275L96.5 130.876L102 136.933L103 126.333L106.5 127.847L105.5 140.467L115 150.058L114 147.029L115 144H117V138.953H118L120.5 140.467L119 154.601L123 158.639L123.5 153.591V150.058L124 147.029L125.5 146.02L129.5 147.029L128 164.192L153.5 190.441L154.5 181.86V176.812H156L156.5 172.773H160.5L163.5 174.288L161 198.013L206 244.958L208 235.367L211.5 220.223H218L223.5 223.252L217 257.073L255 294.427L258.5 281.303L257.5 280.293L256.5 278.779V274.741L258.5 271.207H260L261 263.635H270L275.5 268.683L270.5 310.58L315.5 358.535L502 557.422L611 672.513L631.5 586.699H656L694 616.987L665.5 730.564Z" fill="url(#paint0_radial_42_41)" stroke="#3D3D3D" stroke-width="0.1"/>
<defs>
<radialGradient id="paint0_radial_42_41" cx="0" cy="0" r="1" gradientUnits="userSpaceOnUse" gradientTransform="translate(457 327.238) rotate(-120.562) scale(640.159 795.026)">
<stop stop-color="#3D3D3D" stop-opacity="0"/>
<stop offset="0.760417" stop-color="#3D3D3D"/>
</radialGradient>
</defs>
</svg>
